<svg width="27" height="37" id="Слой_1" data-name="Слой 1" xmlns="http://www.w3.org/2000/svg" viewBox="0 0 76.44 104.58"><defs><style>.cls-1{fill:#fff;}.cls-2{fill:#2b2a2b;}</style></defs><title>chapter</title><g id="chapter"><rect class="cls-1" x="6.9" y="7.68" width="68.04" height="95.4"/><path class="cls-2" d="M74.94,104.58H6.9a1.5,1.5,0,0,1-1.5-1.5V7.68a1.5,1.5,0,0,1,1.5-1.5h68A1.46,1.46,0,0,1,76,6.62a1.5,1.5,0,0,1,.44,1.06v95.4A1.5,1.5,0,0,1,74.94,104.58Zm-66.54-3h65V9.18H8.4Z"/><rect class="cls-1" x="1.5" y="1.5" width="68.04" height="95.4"/><path class="cls-2" d="M69.54,98.4H1.5A1.5,1.5,0,0,1,0,96.9V1.5A1.5,1.5,0,0,1,1.5,0h68A1.5,1.5,0,0,1,71,1.5V96.9A1.5,1.5,0,0,1,69.54,98.4ZM3,95.4H68V3H3Z"/><path class="cls-2" d="M61.5,90.56H11.82a1.47,1.47,0,1,1,0-2.93H61.5a1.47,1.47,0,1,1,0,2.93Z"/><path class="cls-2" d="M61.5,82.76H11.82a1.47,1.47,0,0,1,0-2.94H61.5a1.47,1.47,0,0,1,0,2.94Z"/><path class="cls-2" d="M61.5,75H11.82a1.47,1.47,0,1,1,0-2.93H61.5a1.47,1.47,0,1,1,0,2.93Z"/><path class="cls-2" d="M61.5,67.14H11.82a1.47,1.47,0,1,1,0-2.93H61.5a1.47,1.47,0,1,1,0,2.93Z"/><path class="cls-2" d="M61.5,59.34H11.82a1.47,1.47,0,1,1,0-2.93H61.5a1.47,1.47,0,1,1,0,2.93Z"/><path class="cls-2" d="M61.5,51.53H11.82a1.47,1.47,0,1,1,0-2.93H61.5a1.47,1.47,0,1,1,0,2.93Z"/><path class="cls-2" d="M61.5,43.73H11.82a1.47,1.47,0,1,1,0-2.93H61.5a1.47,1.47,0,1,1,0,2.93Z"/><path class="cls-2" d="M61.5,35.92H11.82a1.47,1.47,0,1,1,0-2.93H61.5a1.47,1.47,0,1,1,0,2.93Z"/><path class="cls-2" d="M61.5,28.12H11.82a1.47,1.47,0,1,1,0-2.94H61.5a1.47,1.47,0,0,1,0,2.94Z"/><path class="cls-2" d="M61.5,20.31H20.82a1.47,1.47,0,1,1,0-2.93H61.5a1.47,1.47,0,1,1,0,2.93Z"/><path class="cls-2" d="M43.14,12.51h-13a1.47,1.47,0,1,1,0-2.94h13a1.47,1.47,0,0,1,0,2.94Z"/></g></svg>