<svg width="196" height="100" id="Слой_1" data-name="Слой 1" xmlns="http://www.w3.org/2000/svg" viewBox="0 0 276.83 142.16"><defs><style>.cls-1{fill:#fff;}.cls-2{fill:#eaeaea;stroke:#000;stroke-miterlimit:10;}</style></defs><title>dialogue-clouds</title><path class="cls-1" d="M30.81,104A31.6,31.6,0,0,1,4.34,89.61L0,82.94l7.58,2.42A25.92,25.92,0,0,0,38.86,71.84a28.7,28.7,0,0,1,5.32-56.9c.9,0,1.8,0,2.71.13a28.7,28.7,0,0,1,50.7.36,34.78,34.78,0,0,1,5.75-.49,34,34,0,1,1-11,66.27A28.7,28.7,0,0,1,56.12,91.34,31.92,31.92,0,0,1,30.81,104Z" transform="translate(0 0)"/><path class="cls-2" d="M103.34,17.77a30.84,30.84,0,0,0-7.36.89,25.86,25.86,0,0,0-47.45-.51,25.86,25.86,0,1,0-5.68,51.31,29,29,0,0,1-1.3,3.33A28.8,28.8,0,0,1,6.71,88.06a28.79,28.79,0,0,0,48.51-.41,25.88,25.88,0,0,0,36-9.94,31.2,31.2,0,1,0,12.16-59.94Z" transform="translate(0 0)"/><path class="cls-1" d="M252.38,142.16a38.55,38.55,0,0,1-28.54-12.56,26.41,26.41,0,0,1-38.42-14.68,25.63,25.63,0,1,1,.19-46.08,25.64,25.64,0,0,1,50.25,1.88,25.25,25.25,0,1,1,13.83,46.37c-.43,0-.85,0-1.28,0A31.07,31.07,0,0,0,269,132.79l7.82,1.72-7.16,3.58A38.39,38.39,0,0,1,252.38,142.16Z" transform="translate(0 0)"/><path class="cls-2" d="M243.79,113.46a22.11,22.11,0,0,0,5.9.79,22.42,22.42,0,1,0-16.42-37.67c0-.59.08-1.19.08-1.79a22.8,22.8,0,0,0-45.56-1.31,22.81,22.81,0,1,0-.51,37.07,23.56,23.56,0,0,0,37.09,15.32,35.9,35.9,0,0,0,44,9.68A33.73,33.73,0,0,1,243.79,113.46Z" transform="translate(0 0)"/></svg>