<svg width="16" height="25" id="Слой_1" data-name="Слой 1" xmlns="http://www.w3.org/2000/svg" viewBox="0 0 45.6 69.26"><defs><style>.cls-1{fill:#fff;}.cls-2{fill:#2b2a2b;}</style></defs><title>note</title><g id="note"><rect class="cls-1" x="1.5" y="12.93" width="42.6" height="54.83"/><path class="cls-2" d="M44.1,69.26H1.5A1.5,1.5,0,0,1,0,67.76V12.93a1.5,1.5,0,0,1,1.5-1.5H44.1a1.5,1.5,0,0,1,1.5,1.5V67.76a1.5,1.5,0,0,1-1.5,1.5ZM3,66.26H42.6V14.43H3Z"/><path class="cls-2" d="M36.83,57.47H8.77a1.47,1.47,0,1,1,0-2.93H36.83a1.47,1.47,0,1,1,0,2.93Z"/><path class="cls-2" d="M36.83,50.77H8.77a1.47,1.47,0,0,1,0-2.94H36.83a1.47,1.47,0,1,1,0,2.94Z"/><path class="cls-2" d="M36.83,44.06H8.77a1.47,1.47,0,1,1,0-2.93H36.83a1.47,1.47,0,1,1,0,2.93Z"/><path class="cls-2" d="M36.83,37.36H8.77a1.47,1.47,0,0,1,0-2.94H36.83a1.47,1.47,0,0,1,0,2.94Z"/><path class="cls-2" d="M36.83,30.65H8.77a1.47,1.47,0,1,1,0-2.93H36.83a1.47,1.47,0,1,1,0,2.93Z"/><path class="cls-1" d="M30.9,9A18.14,18.14,0,0,0,26.34,19.4l-11.1-7a18.61,18.61,0,0,0,4.86-4.2,18.49,18.49,0,0,0,2.64-4.32Z"/><path class="cls-2" d="M33.66,11.78A1.46,1.46,0,1,0,35.22,9.3L32.35,7.48a1.5,1.5,0,0,0-.25-.19L24,2.17A1,1,0,0,0,23.69,2L20.83.23a1.46,1.46,0,1,0-1.56,2.48l1.85,1.17L18.94,7.34l-5.39,3.95a1.5,1.5,0,0,0,.08,2.48l5,3.15-3.14,5A1.46,1.46,0,0,0,18,23.47l3.14-5,5,3.15a1.48,1.48,0,0,0,1.4.11,1.52,1.52,0,0,0,.88-1.1L29.63,14l2.16-3.41Zm-16.56.63,3.84-2.82a1.38,1.38,0,0,0,.39-.41L23.64,5.5,29.23,9l-2.29,3.63a1.37,1.37,0,0,0-.2.52l-.89,4.74Z"/></g></svg>