<svg id="Слой_1" data-name="Слой 1" xmlns="http://www.w3.org/2000/svg" viewBox="0 0 283.47 283.47"><defs><style>.cls-1{fill:#fff;}.cls-2{fill:#616160;}</style></defs><title>pattern-ring_bg</title><rect id="bg" class="cls-1" width="283.46" height="283.46"/><g id="pattern"><path class="cls-2" d="M111.53,160.91A30.45,30.45,0,1,1,142,130.47,30.48,30.48,0,0,1,111.53,160.91Zm0-56.89A26.45,26.45,0,1,0,138,130.47,26.47,26.47,0,0,0,111.53,104Z" transform="translate(0 0)"/><path class="cls-2" d="M111.53,146.23a15.77,15.77,0,1,1,15.77-15.76A15.78,15.78,0,0,1,111.53,146.23Zm0-29.06a13.3,13.3,0,1,0,13.29,13.3A13.31,13.31,0,0,0,111.53,117.17Z" transform="translate(0 0)"/><path class="cls-2" d="M127.08,97.74A30.45,30.45,0,1,1,157.53,67.3,30.48,30.48,0,0,1,127.08,97.74Zm0-56.89A26.45,26.45,0,1,0,153.53,67.3,26.48,26.48,0,0,0,127.08,40.85Z" transform="translate(0 0)"/><path class="cls-2" d="M127.08,83.07A15.77,15.77,0,1,1,142.85,67.3,15.79,15.79,0,0,1,127.08,83.07Zm0-29.07a13.3,13.3,0,1,0,13.3,13.3A13.31,13.31,0,0,0,127.08,54Z" transform="translate(0 0)"/><path class="cls-2" d="M232.58,88.47A28.42,28.42,0,1,1,261,60.05,28.24,28.24,0,0,1,232.58,88.47Zm0-53.11a24.69,24.69,0,1,0,24.69,24.69A24.72,24.72,0,0,0,232.58,35.36Z" transform="translate(0 0)"/><path class="cls-2" d="M232.58,74.77A14.72,14.72,0,1,1,247.3,60.05,14.73,14.73,0,0,1,232.58,74.77Zm0-27.13A12.42,12.42,0,1,0,245,60.05,12.43,12.43,0,0,0,232.58,47.64Z" transform="translate(0 0)"/><path class="cls-2" d="M50.2,75.28A34.91,34.91,0,1,1,85.11,40.37,34.95,34.95,0,0,1,50.2,75.28ZM50.2,10A30.33,30.33,0,1,0,80.52,40.37,30.37,30.37,0,0,0,50.2,10Z" transform="translate(0 0)"/><path class="cls-2" d="M50.2,58.45A18.08,18.08,0,1,1,68.28,40.37,18.1,18.1,0,0,1,50.2,58.45Zm0-33.33A15.25,15.25,0,1,0,65.44,40.37,15.27,15.27,0,0,0,50.2,25.12Z" transform="translate(0 0)"/><path class="cls-2" d="M45.05,212.19a29.33,29.33,0,1,1,29.32-29.32h0A29.35,29.35,0,0,1,45.05,212.19Zm0-54.8a25.48,25.48,0,1,0,25.47,25.48h0A25.51,25.51,0,0,0,45.05,157.39Z" transform="translate(0 0)"/><path class="cls-2" d="M45.05,198.06a15.19,15.19,0,1,1,15.19-15.19A15.21,15.21,0,0,1,45.05,198.06Zm0-28a12.81,12.81,0,1,0,12.81,12.81A12.82,12.82,0,0,0,45.05,170.06Z" transform="translate(0 0)"/><path class="cls-2" d="M141.73,243.47a33.2,33.2,0,1,1,33.2-33.2A33.25,33.25,0,0,1,141.73,243.47Zm0-62a28.84,28.84,0,1,0,28.84,28.84A28.88,28.88,0,0,0,141.73,181.43Z" transform="translate(0 0)"/><path class="cls-2" d="M142.53,228.06a17.2,17.2,0,1,1,17.2-17.19A17.21,17.21,0,0,1,142.53,228.06Zm0-31.69a14.5,14.5,0,1,0,14.5,14.5A14.52,14.52,0,0,0,142.53,196.37Z" transform="translate(0 0)"/><path class="cls-2" d="M196.2,153.23a28.34,28.34,0,1,1,28.34-28.34h0a28.34,28.34,0,0,1-28.34,28.34Zm0-53a24.62,24.62,0,1,0,24.62,24.62h0A24.65,24.65,0,0,0,196.2,100.27Z" transform="translate(0 0)"/><path class="cls-2" d="M196.2,139.57a14.68,14.68,0,1,1,14.68-14.68A14.7,14.7,0,0,1,196.2,139.57Zm0-27.06a12.38,12.38,0,1,0,12.37,12.38A12.39,12.39,0,0,0,196.2,112.51Z" transform="translate(0 0)"/><path class="cls-2" d="M224.55,255.82A27.81,27.81,0,1,1,252.36,228,27.84,27.84,0,0,1,224.55,255.82Zm0-52A24.15,24.15,0,1,0,248.71,228,24,24,0,0,0,224.55,203.86Z" transform="translate(0 0)"/><path class="cls-2" d="M224.55,242.41A14.4,14.4,0,1,1,239,228,14.42,14.42,0,0,1,224.55,242.41Zm0-26.54A12.15,12.15,0,1,0,236.7,228,12.16,12.16,0,0,0,224.55,215.87Z" transform="translate(0 0)"/><path class="cls-2" d="M56.23,275.3A27.81,27.81,0,1,1,84,247.5,27.84,27.84,0,0,1,56.23,275.3Zm0-52A24.15,24.15,0,1,0,80.38,247.5,24.17,24.17,0,0,0,56.23,223.35Z" transform="translate(0 0)"/><path class="cls-2" d="M56.23,261.9a14.4,14.4,0,1,1,14.4-14.4A14.42,14.42,0,0,1,56.23,261.9Zm0-26.55A12.15,12.15,0,1,0,68.37,247.5,12.07,12.07,0,0,0,56.23,235.35Z" transform="translate(0 0)"/><path class="cls-2" d="M63.69,123.36a23.25,23.25,0,1,1,23.25-23.25A23.27,23.27,0,0,1,63.69,123.36Zm0-43.44a20.2,20.2,0,1,0,20.2,20.19A20.22,20.22,0,0,0,63.69,79.92Z" transform="translate(0 0)"/><path class="cls-2" d="M63.69,112.15a12,12,0,1,1,12-12A12.06,12.06,0,0,1,63.69,112.15Zm0-22.19a10.16,10.16,0,1,0,10.16,10.15A10.17,10.17,0,0,0,63.69,90Z" transform="translate(0 0)"/><path class="cls-2" d="M103.41,39.42A15.38,15.38,0,1,1,118.79,24,15.39,15.39,0,0,1,103.41,39.42Zm0-28.35a13,13,0,1,0,13,13A13,13,0,0,0,103.41,11.07Z" transform="translate(0 0)"/><path class="cls-2" d="M142.89,37.26A11.07,11.07,0,1,1,154,26.2,11.07,11.07,0,0,1,142.89,37.26Zm0-20.4a9.34,9.34,0,1,0,9.34,9.34A9.35,9.35,0,0,0,142.89,16.86Z" transform="translate(0 0)"/><path class="cls-2" d="M194.3,54.77a10.4,10.4,0,1,1,10.39-10.39A10.4,10.4,0,0,1,194.3,54.77Zm0-19.16a8.77,8.77,0,1,0,8.76,8.77A8.77,8.77,0,0,0,194.3,35.61Z" transform="translate(0 0)"/><path class="cls-2" d="M172.59,47.64a11.07,11.07,0,1,1,11.07-11.07A11.08,11.08,0,0,1,172.59,47.64Zm0-20.4a9.33,9.33,0,1,0,9.34,9.33A9.34,9.34,0,0,0,172.59,27.24Z" transform="translate(0 0)"/><path class="cls-2" d="M184.71,90.15A15.31,15.31,0,1,1,200,74.85,15.31,15.31,0,0,1,184.71,90.15Zm0-28.21a12.91,12.91,0,1,0,12.91,12.91A12.92,12.92,0,0,0,184.71,61.94Z" transform="translate(0 0)"/><path class="cls-2" d="M166.27,64.69a7.88,7.88,0,1,1,7.88-7.88A7.89,7.89,0,0,1,166.27,64.69Zm0-14.52a6.64,6.64,0,1,0,6.64,6.64A6.65,6.65,0,0,0,166.27,50.17Z" transform="translate(0 0)"/><path class="cls-2" d="M208.39,95.41a6.5,6.5,0,1,1,6.5-6.5A6.51,6.51,0,0,1,208.39,95.41Zm0-12a5.48,5.48,0,1,0,5.48,5.48A5.49,5.49,0,0,0,208.39,83.43Z" transform="translate(0 0)"/><path class="cls-2" d="M164.51,104.4a10.34,10.34,0,1,1,10.34-10.34A10.35,10.35,0,0,1,164.51,104.4Zm0-19.05a8.72,8.72,0,1,0,8.72,8.71A8.72,8.72,0,0,0,164.51,85.35Z" transform="translate(0 0)"/><path class="cls-2" d="M156.12,129.07a9.77,9.77,0,1,1,9.77-9.76A9.78,9.78,0,0,1,156.12,129.07Zm0-18a8.24,8.24,0,1,0,8.23,8.24A8.25,8.25,0,0,0,156.12,111.07Z" transform="translate(0 0)"/><path class="cls-2" d="M144.11,110.55a6.5,6.5,0,1,1,6.49-6.49A6.5,6.5,0,0,1,144.11,110.55Zm0-12a5.48,5.48,0,1,0,5.48,5.48A5.48,5.48,0,0,0,144.11,98.58Z" transform="translate(0 0)"/><path class="cls-2" d="M96.76,99a6.5,6.5,0,1,1,6.49-6.49A6.5,6.5,0,0,1,96.76,99Zm0-12a5.48,5.48,0,1,0,5.48,5.48A5.48,5.48,0,0,0,96.76,87Z" transform="translate(0 0)"/><path class="cls-2" d="M84.38,80.59a8.81,8.81,0,1,1,8.8-8.81A8.82,8.82,0,0,1,84.38,80.59Zm0-16.24a7.43,7.43,0,1,0,7.42,7.43A7.43,7.43,0,0,0,84.38,64.35Z" transform="translate(0 0)"/><path class="cls-2" d="M93,54.39a6.66,6.66,0,1,1,6.67-6.66A6.67,6.67,0,0,1,93,54.39Zm0-12.28a5.62,5.62,0,1,0,5.62,5.62A5.62,5.62,0,0,0,93,42.11Z" transform="translate(0 0)"/><path class="cls-2" d="M28.82,96.59A10.79,10.79,0,1,1,39.61,85.8,10.8,10.8,0,0,1,28.82,96.59Zm0-19.89a9.1,9.1,0,1,0,9.1,9.1A9.11,9.11,0,0,0,28.82,76.7Z" transform="translate(0 0)"/><path class="cls-2" d="M14,73.51a6.67,6.67,0,1,1,6.66-6.66A6.67,6.67,0,0,1,14,73.51Zm0-12.28a5.62,5.62,0,1,0,5.62,5.62A5.62,5.62,0,0,0,14,61.23Z" transform="translate(0 0)"/><path class="cls-2" d="M18.34,112.38a7.57,7.57,0,1,1,7.57-7.57A7.58,7.58,0,0,1,18.34,112.38Zm0-13.95a6.39,6.39,0,1,0,6.38,6.38A6.39,6.39,0,0,0,18.34,98.43Z" transform="translate(0 0)"/><path class="cls-2" d="M37.74,134.38A10.08,10.08,0,1,1,47.82,124.3,10.1,10.1,0,0,1,37.74,134.38Zm0-18.58a8.5,8.5,0,1,0,8.5,8.5A8.51,8.51,0,0,0,37.74,115.8Z" transform="translate(0 0)"/><path class="cls-2" d="M65.31,154.91A13.71,13.71,0,1,1,79,141.2,13.73,13.73,0,0,1,65.31,154.91Zm0-25.26A11.56,11.56,0,1,0,76.86,141.2,11.56,11.56,0,0,0,65.31,129.65Z" transform="translate(0 0)"/><path class="cls-2" d="M43,150.38a6.64,6.64,0,1,1,6.64-6.64A6.65,6.65,0,0,1,43,150.38Zm0-12.24a5.6,5.6,0,1,0,5.6,5.6A5.62,5.62,0,0,0,43,138.14Z" transform="translate(0 0)"/><path class="cls-2" d="M30,154.07A5.09,5.09,0,1,1,35.11,149h0A5.09,5.09,0,0,1,30,154.07Zm0-9.37A4.28,4.28,0,1,0,34.31,149h0A4.29,4.29,0,0,0,30,144.7Z" transform="translate(0 0)"/><path class="cls-2" d="M10,207.05a6.44,6.44,0,1,1,6.44-6.44A6.45,6.45,0,0,1,10,207.05Zm0-11.87a5.43,5.43,0,1,0,5.43,5.43A5.44,5.44,0,0,0,10,195.18Z" transform="translate(0 0)"/><path class="cls-2" d="M20.34,235A13.46,13.46,0,1,1,33.8,221.52,13.46,13.46,0,0,1,20.34,235Zm0-24.8a11.35,11.35,0,1,0,11.35,11.35A11.36,11.36,0,0,0,20.34,210.17Z" transform="translate(0 0)"/><path class="cls-2" d="M19.79,254a6.6,6.6,0,1,1,6.6-6.59A6.6,6.6,0,0,1,19.79,254Zm0-12.16a5.57,5.57,0,1,0,5.56,5.57A5.58,5.58,0,0,0,19.79,241.82Z" transform="translate(0 0)"/><path class="cls-2" d="M15.61,272.77a6.6,6.6,0,1,1,6.6-6.6A6.6,6.6,0,0,1,15.61,272.77Zm0-12.16a5.57,5.57,0,0,0-5.56,5.56,5.57,5.57,0,1,0,5.56-5.56Z" transform="translate(0 0)"/><path class="cls-2" d="M88.67,183.47A13.32,13.32,0,1,1,102,170.15,13.33,13.33,0,0,1,88.67,183.47Zm0-24.55A11.23,11.23,0,1,0,99.9,170.15,11.25,11.25,0,0,0,88.67,158.92Z" transform="translate(0 0)"/><path class="cls-2" d="M88,216.59a13.32,13.32,0,1,1,13.32-13.32h0A13.34,13.34,0,0,1,88,216.59ZM88,192a11.23,11.23,0,1,0,11.23,11.23A11.25,11.25,0,0,0,88,192Z" transform="translate(0 0)"/><path class="cls-2" d="M97.66,241.61a11.92,11.92,0,1,1,11.92-11.92h0a11.92,11.92,0,0,1-11.92,11.92Zm0-22a10,10,0,1,0,10.06,10.05h0A10.07,10.07,0,0,0,97.66,219.64Z" transform="translate(0 0)"/><path class="cls-2" d="M68.23,218.83a6.16,6.16,0,1,1,6.16-6.15,6.12,6.12,0,0,1-6.16,6.15Zm0-11.35a5.2,5.2,0,1,0,0,10.39h0a5.2,5.2,0,0,0,0-10.39Z" transform="translate(0 0)"/><path class="cls-2" d="M105.16,192.3a6.59,6.59,0,1,1,6.59-6.58A6.59,6.59,0,0,1,105.16,192.3Zm0-12.14a5.56,5.56,0,1,0,5.56,5.56A5.56,5.56,0,0,0,105.16,180.16Z" transform="translate(0 0)"/><path class="cls-2" d="M118.3,179.92a8.59,8.59,0,1,1,8.58-8.59A8.59,8.59,0,0,1,118.3,179.92Zm0-15.82a7.24,7.24,0,1,0,7.24,7.23A7.24,7.24,0,0,0,118.3,164.1Z" transform="translate(0 0)"/><path class="cls-2" d="M138.69,172.76a7.39,7.39,0,1,1,7.39-7.39A7.4,7.4,0,0,1,138.69,172.76Zm0-13.62a6.23,6.23,0,1,0,6.23,6.23A6.23,6.23,0,0,0,138.69,159.14Z" transform="translate(0 0)"/><path class="cls-2" d="M155.21,161a13.37,13.37,0,1,1,13.37-13.37h0A13.39,13.39,0,0,1,155.21,161Zm0-24.64a11.27,11.27,0,1,0,11.27,11.27A11.28,11.28,0,0,0,155.21,136.32Z" transform="translate(0 0)"/><path class="cls-2" d="M177.09,167.52a8,8,0,1,1,8-8A8,8,0,0,1,177.09,167.52Zm0-14.76a6.75,6.75,0,1,0,6.75,6.75A6.76,6.76,0,0,0,177.09,152.76Z" transform="translate(0 0)"/><path class="cls-2" d="M163.62,178.49a6.86,6.86,0,1,1,6.86-6.86A6.86,6.86,0,0,1,163.62,178.49Zm0-12.65a5.79,5.79,0,1,0,5.78,5.79A5.8,5.8,0,0,0,163.62,165.84Z" transform="translate(0 0)"/><path class="cls-2" d="M196.86,170.57a7.21,7.21,0,1,1,7.21-7.21A7.21,7.21,0,0,1,196.86,170.57Zm0-13.29a6.08,6.08,0,1,0,6.08,6.08A6.08,6.08,0,0,0,196.86,157.28Z" transform="translate(0 0)"/><path class="cls-2" d="M187.47,203.05a15.29,15.29,0,1,1,15.28-15.29A15.3,15.3,0,0,1,187.47,203.05Zm0-28.18a12.9,12.9,0,1,0,12.89,12.89A12.91,12.91,0,0,0,187.47,174.87Z" transform="translate(0 0)"/><path class="cls-2" d="M252,182.87a13.3,13.3,0,1,1,13.31-13.3A13.32,13.32,0,0,1,252,182.87Zm0-24.52a11.22,11.22,0,1,0,11.22,11.22A11.23,11.23,0,0,0,252,158.35Z" transform="translate(0 0)"/><path class="cls-2" d="M218.69,196.47a11,11,0,1,1,10.95-10.95A11,11,0,0,1,218.69,196.47Zm0-20.19a9.24,9.24,0,1,0,9.23,9.24A9.26,9.26,0,0,0,218.69,176.28Z" transform="translate(0 0)"/><path class="cls-2" d="M223.61,172.08a12.17,12.17,0,1,1,11.92-9.72h0A12.19,12.19,0,0,1,223.61,172.08Zm0-22.43a10.26,10.26,0,1,0,2.07.21A10.54,10.54,0,0,0,223.61,149.65Z" transform="translate(0 0)"/><path class="cls-2" d="M240.05,199.07a6.46,6.46,0,0,1-4.59-11,6.39,6.39,0,0,1,4.56-1.91A6.2,6.2,0,0,1,244.6,188a6.46,6.46,0,0,1-4.52,11Zm0-11.9h0a5.45,5.45,0,0,0,0,10.89h0a5.45,5.45,0,0,0,0-10.89Z" transform="translate(0 0)"/><path class="cls-2" d="M264.93,218.42a15.24,15.24,0,0,1-.06-30.47h.06a15.24,15.24,0,0,1,15.24,15.17h0A15.23,15.23,0,0,1,265,218.42Zm0-28.08h-.05a12.85,12.85,0,0,0,.05,25.7H265a12.87,12.87,0,0,0,12.8-12.91h0a12.84,12.84,0,0,0-12.85-12.79Z" transform="translate(0 0)"/><path class="cls-2" d="M242.14,147.6a15.3,15.3,0,1,1,15.29-15.36h0A15.3,15.3,0,0,1,242.2,147.6Zm0-28.19h0a12.9,12.9,0,0,0,0,25.79h.05A12.89,12.89,0,0,0,255,132.25h0a12.89,12.89,0,0,0-12.89-12.84Z" transform="translate(0 0)"/><path class="cls-2" d="M258.4,117.8a6.55,6.55,0,0,1-.15-13.1,6.54,6.54,0,0,1,6.7,6.39h0a6.54,6.54,0,0,1-6.39,6.7Zm0-12.08h-.13a5.52,5.52,0,1,0,5.65,5.4h0a5.53,5.53,0,0,0-5.52-5.4Z" transform="translate(0 0)"/><path class="cls-2" d="M235.19,116a12.24,12.24,0,0,1-.05-24.47h.05a12.24,12.24,0,0,1,.05,24.48Zm0-22.56h0a10.32,10.32,0,0,0,0,20.64h0a10.32,10.32,0,0,0,0-20.64Z" transform="translate(0 0)"/><path class="cls-2" d="M274.23,62.54a6.55,6.55,0,1,1,6.55-6.7h0a6.56,6.56,0,0,1-6.4,6.7Zm0-12.07h-.14a5.53,5.53,0,0,0,.26,11.05,5.54,5.54,0,0,0,5.39-5.66,5.53,5.53,0,0,0-5.51-5.39Z" transform="translate(0 0)"/><path class="cls-2" d="M257.66,34.72a15.12,15.12,0,1,1,.38,0Zm0-28.62h-.31a13.09,13.09,0,0,0-8.73,22.55,13.09,13.09,0,1,0,9-22.56Z" transform="translate(0 0)"/><path class="cls-2" d="M252.67,282.21a13.64,13.64,0,0,1-13.62-13.31A13.65,13.65,0,0,1,252.36,255a13.64,13.64,0,0,1,13.94,13.31h0A13.64,13.64,0,0,1,253,282.21Zm0-25.12h-.27a11.49,11.49,0,0,0-7.67,19.8,11.49,11.49,0,0,0,19.42-8.58h0a11.49,11.49,0,0,0-11.48-11.23Z" transform="translate(0 0)"/><path class="cls-2" d="M200,262a6.61,6.61,0,0,1-.15-13.22,6.68,6.68,0,0,1,4.72,1.83,6.59,6.59,0,0,1,2,4.63h0A6.61,6.61,0,0,1,200.1,262Zm0-12.19h-.13a5.58,5.58,0,0,0-3.72,9.61,5.61,5.61,0,0,0,4,1.54A5.58,5.58,0,0,0,200,249.8Z" transform="translate(0 0)"/><path class="cls-2" d="M180.47,276.94a8.43,8.43,0,1,1,.19,0Zm0-14h-.16a6.42,6.42,0,1,0,6.56,6.26h0a6.4,6.4,0,0,0-6.4-6.26Z" transform="translate(0 0)"/><path class="cls-2" d="M180,257.4a13.39,13.39,0,0,1-.3-26.77H180a13.4,13.4,0,0,1,13.38,13.07h0a13.4,13.4,0,0,1-13.07,13.7Zm0-24.68h-.26a11,11,0,1,0,.26,0Z" transform="translate(0 0)"/><path class="cls-2" d="M186.28,227.32a9.13,9.13,0,0,1-6.6-15.44A9.14,9.14,0,0,1,195.42,218h0a9.15,9.15,0,0,1-8.92,9.34Zm0-16.84h-.18a7.7,7.7,0,0,0,.17,15.4h.18A7.71,7.71,0,0,0,194,218a7.7,7.7,0,0,0-7.69-7.52Z" transform="translate(0 0)"/><path class="cls-2" d="M155.22,257.53a6.76,6.76,0,0,1-.15-13.51,6.63,6.63,0,0,1,4.82,1.86,6.76,6.76,0,0,1-4.51,11.65Zm0-12.46h-.14a5,5,0,1,0,.14,0Z" transform="translate(0 0)"/><path class="cls-2" d="M146.58,279.21a10.84,10.84,0,0,1-.25-21.68,10.88,10.88,0,0,1,11.1,10.58h0a10.86,10.86,0,0,1-10.59,11.1Zm0-20h-.22a8.85,8.85,0,1,0,.22,0Z" transform="translate(0 0)"/><path class="cls-2" d="M122.09,268.25a12.94,12.94,0,1,1,.32,0Zm0-24.51h-.27a11.52,11.52,0,1,0,.27,0Z" transform="translate(0 0)"/><path class="cls-2" d="M107.81,278.59a6.63,6.63,0,0,1-4.79-11.2,6.57,6.57,0,0,1,4.64-2,6.47,6.47,0,0,1,4.73,1.83A6.63,6.63,0,0,1,108,278.59Zm0-12.21h-.14a5.58,5.58,0,1,0,5.72,5.46h0a5.6,5.6,0,0,0-5.58-5.46Z" transform="translate(0 0)"/><path class="cls-2" d="M93.61,262.49a7.93,7.93,0,1,1,.46,0Zm0-14.83-.39,0a6.78,6.78,0,1,0,7.15,6.38h0a6.79,6.79,0,0,0-6.76-6.4Z" transform="translate(0 0)"/><path class="cls-2" d="M283.46,255.17a17.17,17.17,0,0,1-9.39,2.81h0a17.3,17.3,0,0,1,0-34.59h0a17.13,17.13,0,0,1,9.41,2.79v-3.05a19.78,19.78,0,0,0-9.41-2.36h0a19.91,19.91,0,0,0,0,39.82h0a19.67,19.67,0,0,0,9.39-2.37Z" transform="translate(0 0)"/><path class="cls-2" d="M283.46,236.48a10.13,10.13,0,0,0-2.12-3.1,10.27,10.27,0,0,0-7.29-3h0a10.31,10.31,0,0,0,0,20.62h0a10.25,10.25,0,0,0,9.4-6.11Zm-3.25,10.35a8.66,8.66,0,0,1-6.15,2.55h0A8.7,8.7,0,0,1,274,232h0a8.7,8.7,0,0,1,6.16,14.84Z" transform="translate(0 0)"/><path class="cls-2" d="M283.46,189.94h0a11.37,11.37,0,0,1,0-22.74v-2.11a13.48,13.48,0,1,0,0,27h0Z" transform="translate(0 0)"/><path class="cls-2" d="M283.46,156.82a21.61,21.61,0,0,1,0-43.1v-3.29a24.89,24.89,0,0,0,0,49.68Z" transform="translate(0 0)"/><path class="cls-2" d="M283.46,146a10.86,10.86,0,0,1,0-21.49v-2a12.89,12.89,0,0,0,0,25.58Z" transform="translate(0 0)"/><path class="cls-2" d="M283.46,102.12a17.54,17.54,0,0,1-8.5,2.18h0a17.69,17.69,0,0,1,0-35.38h0a17.61,17.61,0,0,1,8.51,2.19v-3A20.22,20.22,0,0,0,275,66.25h0a20.37,20.37,0,0,0,0,40.73h0a20.3,20.3,0,0,0,8.5-1.88Z" transform="translate(0 0)"/><path class="cls-2" d="M283.46,48a10.93,10.93,0,0,1,0-21.86v-2a13,13,0,0,0,0,25.92Z" transform="translate(0 0)"/><path class="cls-2" d="M283.46,89.18A8.89,8.89,0,0,1,275,95.51h0a8.9,8.9,0,1,1,0-17.79h0a8.89,8.89,0,0,1,8.51,6.33V80.41A10.36,10.36,0,0,0,275,76.07h0a10.55,10.55,0,1,0,0,21.09h0a10.48,10.48,0,0,0,7.46-3.09,12.2,12.2,0,0,0,1-1.25Z" transform="translate(0 0)"/><path class="cls-2" d="M0,236.48v8.4a10.36,10.36,0,0,0,.9-4.21A10.3,10.3,0,0,0,0,236.48Z" transform="translate(0 0)"/><path class="cls-2" d="M0,223.15v3a17.29,17.29,0,0,1,7.88,14.48A17.27,17.27,0,0,1,0,255.17v3.05a19.94,19.94,0,0,0,10.5-17.56A19.92,19.92,0,0,0,0,223.15Z" transform="translate(0 0)"/><path class="cls-2" d="M0,165.09v2.11a11.38,11.38,0,0,1,11.37,11.37A11.38,11.38,0,0,1,0,189.94H0v2.11H0a13.5,13.5,0,0,0,13.48-13.48A13.5,13.5,0,0,0,0,165.09Z" transform="translate(0 0)"/><path class="cls-2" d="M1.59,122.38h0a13.67,13.67,0,0,0-1.58.1v2a10.31,10.31,0,0,1,1.58-.13h0a10.88,10.88,0,0,1,10.87,10.86A10.8,10.8,0,0,1,9.28,143a10.76,10.76,0,0,1-7.68,3.19h0A10.44,10.44,0,0,1,0,146v2.05a13.84,13.84,0,0,0,1.59.11h0a12.83,12.83,0,0,0,9.11-3.79,12.76,12.76,0,0,0,3.77-9.12A12.9,12.9,0,0,0,1.59,122.38Z" transform="translate(0 0)"/><path class="cls-2" d="M19.18,117.65a24.77,24.77,0,0,0-17.59-7.28h0c-.52,0-1,0-1.56.06v3.28c.52,0,1-.07,1.57-.07h0a21.63,21.63,0,0,1,0,43.26h0c-.54,0-1.07,0-1.59-.07v3.28c.53,0,1.05.06,1.59.06h0a24.91,24.91,0,0,0,24.87-24.92A24.74,24.74,0,0,0,19.18,117.65Z" transform="translate(0 0)"/><path class="cls-2" d="M0,80.41v3.65a9,9,0,0,1,.37,2.55A8.88,8.88,0,0,1,0,89.18v3.63A10.47,10.47,0,0,0,2,86.6,10.45,10.45,0,0,0,0,80.41Z" transform="translate(0 0)"/><path class="cls-2" d="M0,24.09v2A10.94,10.94,0,0,1,10.93,37.05,10.94,10.94,0,0,1,0,48H0v2H0a13,13,0,0,0,13-13A13,13,0,0,0,0,24.09Z" transform="translate(0 0)"/><path class="cls-2" d="M0,68.14v3A17.7,17.7,0,0,1,9.17,86.6,17.69,17.69,0,0,1,0,102.11v3A20.39,20.39,0,0,0,11.85,86.6h0A20.4,20.4,0,0,0,0,68.14Z" transform="translate(0 0)"/><path class="cls-2" d="M273.39,283.46a11,11,0,0,1,10.07-7.3v-2a13.06,13.06,0,0,0-12.23,9.34Z" transform="translate(0 0)"/><path class="cls-2" d="M190.27,283.46a24.34,24.34,0,0,1,23.62-18.68h0a24.33,24.33,0,0,1,23.64,18.68h3.77a28,28,0,0,0-27.41-22.36h0a28,28,0,0,0-27.39,22.36Z" transform="translate(0 0)"/><path class="cls-2" d="M203.06,283.46a12.31,12.31,0,0,1,2.2-3,12.15,12.15,0,0,1,8.64-3.59h0a12.22,12.22,0,0,1,10.85,6.6h2.52a14.57,14.57,0,0,0-3.13-4.64,14.4,14.4,0,0,0-10.24-4.23h0a14.36,14.36,0,0,0-10.24,4.25,14.53,14.53,0,0,0-3.11,4.62Z" transform="translate(0 0)"/><path class="cls-2" d="M154.53,283.46a13,13,0,0,1,21.05,0h2.91a15.5,15.5,0,0,0-26.87,0Z" transform="translate(0 0)"/><path class="cls-2" d="M118.57,283.46a10.22,10.22,0,0,1,8.63-4.76l.62,0a10.15,10.15,0,0,1,7.05,3.42,10.57,10.57,0,0,1,1,1.32H138a12.29,12.29,0,0,0-1.75-2.59,12.14,12.14,0,0,0-19.9,2.59Z" transform="translate(0 0)"/><path class="cls-2" d="M29.12,283.46A7.65,7.65,0,1,1,43.9,280.7a7.41,7.41,0,0,1-.53,2.76h1.52a9.07,9.07,0,1,0-17.28,0Z" transform="translate(0 0)"/><path class="cls-2" d="M10.64,283.46h2.15A13.07,13.07,0,0,0,.28,274.1l-.28,0v2H.28A11,11,0,0,1,10.64,283.46Z" transform="translate(0 0)"/><path class="cls-2" d="M71.32,283.46c0-.22,0-.43,0-.66a11.79,11.79,0,0,1,23.58,0c0,.23,0,.44,0,.66H97c0-.22,0-.43,0-.66a14,14,0,0,0-28,0c0,.23,0,.44,0,.66Z" transform="translate(0 0)"/><path class="cls-2" d="M10.64,0a11,11,0,0,1,.65,3.69,11,11,0,0,1-11,11H0v2l.28,0A13.07,13.07,0,0,0,13.33,3.69,12.86,12.86,0,0,0,12.79,0Z" transform="translate(0 0)"/><path class="cls-2" d="M43.37,0a7.65,7.65,0,0,1-7.12,4.88A7.68,7.68,0,0,1,29.12,0H27.61a9.09,9.09,0,0,0,8.64,6.31A9.1,9.1,0,0,0,44.89,0Z" transform="translate(0 0)"/><path class="cls-2" d="M94.84,0A11.8,11.8,0,0,1,83.08,11.13,11.8,11.8,0,0,1,71.32,0H69.13a14,14,0,0,0,14,13.32A14,14,0,0,0,97,0Z" transform="translate(0 0)"/><path class="cls-2" d="M135.86,0A10.23,10.23,0,1,1,117,4.87,10.13,10.13,0,0,1,118.57,0h-2.19a12,12,0,0,0-1.28,4.76,12.14,12.14,0,0,0,11.4,12.83l.73,0a12.05,12.05,0,0,0,8-3.07A12.09,12.09,0,0,0,138,0Z" transform="translate(0 0)"/><path class="cls-2" d="M175.58,0a13,13,0,0,1,2.57,7.75,13.1,13.1,0,0,1-26.19,0A13,13,0,0,1,154.53,0h-2.91a15.53,15.53,0,1,0,26.87,0Z" transform="translate(0 0)"/><path class="cls-2" d="M224.76,0a12.1,12.1,0,0,1,1.37,5.6,12.23,12.23,0,0,1-12.21,12.23h0A12.22,12.22,0,0,1,201.69,5.62,12.18,12.18,0,0,1,203.06,0h-2.51a14.49,14.49,0,0,0,3.13,15.87,14.38,14.38,0,0,0,10.23,4.23h0A14.51,14.51,0,0,0,227.28,0Z" transform="translate(0 0)"/><path class="cls-2" d="M237.55,0a24,24,0,0,1,.66,5.59,24.33,24.33,0,0,1-24.28,24.32h0A24.29,24.29,0,0,1,190.27,0H186.5a27.6,27.6,0,0,0-.56,5.64,28,28,0,0,0,28,28h0a28,28,0,0,0,27.95-28h0A27.74,27.74,0,0,0,241.32,0Z" transform="translate(0 0)"/><path class="cls-2" d="M272.74,3.69A10.77,10.77,0,0,1,273.39,0h-2.16a12.86,12.86,0,0,0-.54,3.69,13.06,13.06,0,0,0,12.77,13v-2A11,11,0,0,1,272.74,3.69Z" transform="translate(0 0)"/></g></svg>